<?xml version="1.0" encoding="UTF-8"?>
<svg width="121px" height="32px" viewBox="0 0 121 32" version="1.1" xmlns="http://www.w3.org/2000/svg" xmlns:xlink="http://www.w3.org/1999/xlink">
    <!-- Generator: sketchtool 53.1 (72631) - https://sketchapp.com -->
    <title>CE89861B-F50E-493C-8960-9441527A2C9F</title>
    <desc>Created with sketchtool.</desc>
    <g id="Desktop" stroke="none" stroke-width="1" fill="none" fill-rule="evenodd">
        <g id="Home" transform="translate(-100.000000, -32.000000)">
            <g id="Navbar" transform="translate(100.000000, 32.000000)">
                <g id="nav-logo">
                    <g id="Group">
                        <g transform="translate(34.621449, 1.331594)" fill="#0E1C3F">
                            <path d="M2.26371014,27.0313623 L2.26371014,13.315942 C2.26371014,12.9164638 2.13055072,12.7833043 1.73107246,12.7833043 L0.665797101,12.7833043 L0.665797101,9.32115942 L2.53002899,9.32115942 C5.06005797,9.32115942 5.85901449,10.2532754 5.85901449,12.5169855 L5.85901449,26.8982029 L2.26371014,26.8982029 L2.26371014,27.0313623 Z M3.46214493,1.86423188 C4.79373913,1.86423188 5.99217391,2.92950725 5.99217391,4.39426087 C5.99217391,5.85901449 4.92689855,6.92428986 3.46214493,6.92428986 C2.13055072,6.92428986 0.932115942,5.85901449 0.932115942,4.39426087 C0.932115942,2.92950725 2.13055072,1.86423188 3.46214493,1.86423188 Z" id="Shape" fill-rule="nonzero"></path>
                            <path d="M13.4491014,9.32115942 L13.7154203,11.4517101 C15.1801739,9.98695652 16.9112464,9.05484058 19.0417971,9.05484058 C21.7049855,9.05484058 24.1018551,10.5195942 24.1018551,14.248058 L24.1018551,26.8982029 L20.6397101,26.8982029 L20.6397101,14.248058 C20.6397101,12.9164638 19.973913,12.3838261 18.6423188,12.3838261 C16.9112464,12.3838261 15.0470145,13.7154203 13.7154203,15.3133333 L13.7154203,26.8982029 L10.2532754,26.8982029 L10.2532754,9.32115942 L13.4491014,9.32115942 Z" id="Path"></path>
                            <path d="M34.221971,26.8982029 C33.4230145,27.1645217 32.7572174,27.1645217 32.0914203,27.1645217 C29.4282319,27.1645217 28.2297971,25.5666087 28.2297971,22.503942 L28.2297971,1.19843478 L31.691942,1.19843478 L31.691942,22.6371014 C31.691942,23.5692174 32.2245797,23.9686957 33.0235362,23.9686957 C33.2898551,23.9686957 33.6893333,23.9686957 33.9556522,23.8355362 L34.221971,26.8982029 Z" id="Path"></path>
                            <path d="M36.0862029,18.9086377 L36.0862029,17.3107246 C36.0862029,12.9164638 38.349913,9.05484058 44.0757681,9.05484058 C49.8016232,9.05484058 52.0653333,12.9164638 52.0653333,17.3107246 L52.0653333,18.9086377 C52.0653333,23.3028986 49.8016232,27.1645217 44.0757681,27.1645217 C38.349913,27.2976812 36.0862029,23.436058 36.0862029,18.9086377 Z M48.470029,18.7754783 L48.470029,17.4438841 C48.470029,14.5143768 47.0052754,12.3838261 44.0757681,12.3838261 C41.1462609,12.3838261 39.6815072,14.5143768 39.6815072,17.4438841 L39.6815072,18.7754783 C39.6815072,21.7049855 41.1462609,23.8355362 44.0757681,23.8355362 C47.0052754,23.9686957 48.470029,21.7049855 48.470029,18.7754783 Z" id="Shape" fill-rule="nonzero"></path>
                            <path d="M67.5118261,25.8329275 C65.7807536,26.8982029 64.1828406,27.1645217 62.3186087,27.1645217 C57.658029,27.1645217 54.4622029,24.3681739 54.4622029,19.5744348 L54.4622029,17.0444058 C54.4622029,12.1175072 57.5248696,9.05484058 62.718087,9.05484058 C64.1828406,9.05484058 65.6475942,9.32115942 67.1123478,9.98695652 L66.846029,13.315942 C65.5144348,12.7833043 64.316,12.5169855 62.9844058,12.5169855 C60.3212174,12.5169855 58.0575072,13.9817391 58.0575072,17.1775652 L58.0575072,19.4412754 C58.0575072,22.6371014 60.0548986,23.9686957 62.4517681,23.9686957 C64.1828406,23.9686957 65.7807536,23.436058 67.1123478,22.503942 L67.5118261,25.8329275 Z" id="Path"></path>
                            <path d="M69.9086957,18.9086377 L69.9086957,17.3107246 C69.9086957,12.9164638 72.1724058,9.05484058 77.8982609,9.05484058 C83.6241159,9.05484058 85.8878261,12.9164638 85.8878261,17.3107246 L85.8878261,18.9086377 C85.8878261,23.3028986 83.6241159,27.1645217 77.8982609,27.1645217 C72.1724058,27.2976812 69.9086957,23.436058 69.9086957,18.9086377 Z M82.2925217,18.7754783 L82.2925217,17.4438841 C82.2925217,14.5143768 80.8277681,12.3838261 77.8982609,12.3838261 C74.9687536,12.3838261 73.504,14.5143768 73.504,17.4438841 L73.504,18.7754783 C73.504,21.7049855 74.9687536,23.8355362 77.8982609,23.8355362 C80.8277681,23.9686957 82.2925217,21.7049855 82.2925217,18.7754783 Z" id="Shape" fill-rule="nonzero"></path>
                        </g>
                        <path d="M23.3028986,3.32898551 L14.1148986,0 L4.92689855,3.32898551 L0,11.5848696 L1.73107246,21.4386667 L14.1148986,31.8251014 L26.4987246,21.4386667 L28.2297971,11.5848696 L23.3028986,3.32898551 Z M18.1096812,17.9765217 L14.1148986,19.5744348 L14.1148986,19.5744348 L14.1148986,19.5744348 L10.1201159,17.9765217 L8.5222029,13.9817391 L10.1201159,9.98695652 L14.1148986,8.38904348 L18.1096812,9.98695652 L19.7075942,13.9817391 L18.1096812,17.9765217 Z" id="Shape" fill="#6E778C" fill-rule="nonzero"></path>
                    </g>
                </g>
            </g>
        </g>
    </g>
</svg>